M48
; DRILL file {KiCad (6.0.7)} date Mon Mar 20 21:12:24 2023
; FORMAT={-:-/ absolute / inch / decimal}
; #@! TF.CreationDate,2023-03-20T21:12:24-05:00
; #@! TF.GenerationSoftware,Kicad,Pcbnew,(6.0.7)
; #@! TF.FileFunction,Plated,1,2,PTH
FMAT,2
INCH
; #@! TA.AperFunction,Plated,PTH,ViaDrill
T1C0.0157
; #@! TA.AperFunction,Plated,PTH,ComponentDrill
T2C0.0315
; #@! TA.AperFunction,Plated,PTH,ComponentDrill
T3C0.0354
; #@! TA.AperFunction,Plated,PTH,ComponentDrill
T4C0.0700
; #@! TA.AperFunction,Plated,PTH,ComponentDrill
T5C0.0787
; #@! TA.AperFunction,Plated,PTH,ComponentDrill
T6C0.0900
%
G90
G05
T1
X4.24Y-2.75
X4.24Y-2.92
X4.24Y-2.98
X4.24Y-3.12
X4.24Y-3.18
T2
X4.3Y-3.3213
X4.3Y-3.4
X7.2349Y-2.87
X7.2349Y-3.27
X7.2349Y-3.67
X7.3727Y-2.87
X7.3727Y-3.27
X7.3727Y-3.67
T3
X4.525Y-3.8
X4.525Y-3.9
T4
X4.8Y-2.995
X4.8Y-3.295
X4.8Y-3.595
X6.8Y-3.145
X6.8Y-3.295
X6.8Y-3.445
T6
X6.8Y-2.995
X6.8Y-3.595
T5
G00X4.5274Y-3.1037
M15
G01X4.5274Y-3.1863
M16
G05
G00X4.5274Y-3.4137
M15
G01X4.5274Y-3.4963
M16
G05
G00X7.0447Y-3.153
M15
G01X7.0447Y-3.0703
M16
G05
G00X7.0447Y-3.463
M15
G01X7.0447Y-3.3803
M16
G05
T0
M30
